{"title":"NASCAR 2011 Martinsville Goody's Fast Relief 500 HDTV_JHW.mp4","uid":6293099,"size":2375617063,"categoryP":"video","categoryS":"hd___tv_shows","magnet":"?xt=urn:btih:ae3df2ff8162c5cedf3df2afa4b4ea67e8766c02&amp;dn=NASCAR+2011+Martinsville+Goody%5C%27s+Fast+Relief+500+HDTV_JHW.mp4&amp;tr=udp%3A%2F%2Ftracker.openbittorrent.com%3A80&amp;tr=udp%3A%2F%2Fopen.demonii.com%3A1337&amp;tr=udp%3A%2F%2Ftracker.coppersurfer.tk%3A6969&amp;tr=udp%3A%2F%2Fexodus.desync.com%3A6969","seeders":1,"leechers":0,"uploader":"jameshotwire","files":1,"time":1301897595,"description":"Race #6 for the cup.\n\nGeneral\nComplete name                    : NASCAR 2011 Martinsville Goody's Fast Relief 500 HDTV_JHW.mp4\nFormat                           : MPEG-4\nFormat profile                   : Base Media / Version 2\nCodec ID                         : mp42\nFile size                        : 2.21 GiB\nDuration                         : 3h 46mn\nOverall bit rate                 : 1 395 Kbps\nEncoded date                     : UTC 2011-04-03 02:59:42\nTagged date                      : UTC 2011-04-03 02:59:42\nWriting library                  : AVS \n\nVideo\nID                               : 1\nFormat                           : AVC\nFormat/Info                      : Advanced Video Codec\nFormat profile                   : &lt;a class=&quot;__cf_email__&quot; href=&quot;/cdn-cgi/l/email-protection&quot; data-cfemail=&quot;a1ecc0c8cfe1ed948f90&quot;&gt;[email&amp;#160;protected]&lt;/a&gt;&lt;script cf-hash='f9e31' type=&quot;text/javascript&quot;&gt;\n/* &lt;![CDATA[ */!function(){try{var t=&quot;currentScript&quot;in document?document.currentScript:function(){for(var t=document.getElementsByTagName(&quot;script&quot;),e=t.length;e--;)if(t[e].getAttribute(&quot;cf-hash&quot;))return t[e]}();if(t&amp;&amp;t.previousSibling){var e,r,n,i,c=t.previousSibling,a=c.getAttribute(&quot;data-cfemail&quot;);if(a){for(e=&quot;&quot;,r=parseInt(a.substr(0,2),16),n=2;a.length-n;n+=2)i=parseInt(a.substr(n,2),16)^r,e+=String.fromCharCode(i);e=document.createTextNode(e),c.parentNode.replaceChild(e,c)}}}catch(u){}}();/* ]]&gt; */&lt;/script&gt;\nFormat settings, CABAC           : Yes\nFormat settings, ReFrames        : 2 frames\nCodec ID                         : avc1\nCodec ID/Info                    : Advanced Video Coding\nDuration                         : 3h 46mn\nBit rate mode                    : Variable\nBit rate                         : 1 197 Kbps\nWidth                            : 720 pixels\nHeight                           : 400 pixels\nDisplay aspect ratio             : 16:9\nFrame rate mode                  : Constant\nFrame rate                       : 29.970 fps\nColor space                      : YUV\nChroma subsampling               : 4:2:0\nBit depth                        : 8 bits\nScan type                        : Progressive\nBits/(Pixel*Frame)               : 0.139\nStream size                      : 1.90 GiB (86%)\nLanguage                         : English\n\nAudio\nID                               : 2\nFormat                           : AAC\nFormat/Info                      : Advanced Audio Codec\nFormat profile                   : LC\nCodec ID                         : 40\nDuration                         : 3h 46mn\nBit rate mode                    : Constant\nBit rate                         : 192 Kbps\nChannel(s)                       : 2 channels\nChannel positions                : Front: L R\nSampling rate                    : 48.0 KHz\nCompression mode                 : Lossy\nStream size                      : 307 MiB (14%)\nLanguage                         : English\n\nThis is why we watch folks. Boogity Boogity Boogity!!!\n[img]http://img607.imageshack.us/img607/1834/vlcsnap2011040323h42m05.png[/img]\n[img]http://img600.imageshack.us/img600/1763/vlcsnap2011040323h43m28.png[/img]\nThat mishap caused a 20 minutes or so delay while they repaired the safer barrier. Nobody hurt and all that in the first half, Good Finish an I wont spoil that. Enjoy and see ya next week in Texas.","torrent":{"xt":"urn:btih:ae3df2ff8162c5cedf3df2afa4b4ea67e8766c02","amp;dn":"NASCAR+2011+Martinsville+Goody%5C%27s+Fast+Relief+500+HDTV_JHW.mp4","amp;tr":["udp%3A%2F%2Ftracker.openbittorrent.com%3A80","udp%3A%2F%2Fopen.demonii.com%3A1337","udp%3A%2F%2Ftracker.coppersurfer.tk%3A6969","udp%3A%2F%2Fexodus.desync.com%3A6969"],"infoHash":"ae3df2ff8162c5cedf3df2afa4b4ea67e8766c02","infoHashBuffer":{"type":"Buffer","data":[174,61,242,255,129,98,197,206,223,61,242,175,164,180,234,103,232,118,108,2]},"announce":[],"urlList":[]}}